<?xml version="1.0" standalone="no"?>
<!DOCTYPE svg PUBLIC "-//W3C//DTD SVG 20010904//EN"
 "http://www.w3.org/TR/2001/REC-SVG-20010904/DTD/svg10.dtd">
<svg version="1.0" xmlns="http://www.w3.org/2000/svg"
 width="1102.000000pt" height="610.000000pt" viewBox="0 0 1102.000000 610.000000"
 preserveAspectRatio="xMidYMid meet">

<g transform="translate(0.000000,610.000000) scale(0.100000,-0.100000)"
fill="#000000" stroke="none">
<path d="M3615 5481 c-134 -57 -215 -100 -215 -114 0 -11 119 -267 480 -1032
231 -489 374 -795 430 -915 37 -80 121 -260 187 -400 66 -140 218 -466 338
-723 120 -258 224 -471 230 -474 17 -6 315 138 315 152 0 12 -25 68 -135 300
-85 181 -886 1897 -947 2030 -33 72 -72 155 -85 185 -24 52 -80 172 -359 772
-78 169 -124 257 -134 257 -8 0 -55 -17 -105 -38z"/>
<path d="M3290 4713 c-24 -54 -61 -134 -81 -178 -21 -44 -161 -348 -312 -675
-151 -327 -323 -698 -381 -823 l-106 -229 0 -149 0 -149 930 0 930 0 0 150 0
150 -760 0 c-500 0 -760 3 -760 10 0 6 187 414 416 908 229 493 423 912 430
930 l15 33 -125 59 c-69 33 -131 60 -138 60 -8 0 -33 -44 -58 -97z"/>
<path d="M7361 3250 c-46 -5 -86 -11 -89 -14 -3 -4 2 -151 11 -329 10 -177 20
-393 23 -479 l6 -157 32 -5 c153 -23 360 -11 474 28 221 76 335 278 303 535
-26 203 -138 335 -337 396 -89 27 -286 39 -423 25z m411 -419 c63 -24 98 -85
98 -171 0 -106 -54 -183 -145 -209 -22 -6 -43 -11 -47 -11 -10 0 -10 84 -1
263 l6 137 33 0 c18 0 43 -4 56 -9z"/>
<path d="M5453 3158 c7 -90 24 -439 35 -713 l7 -170 178 -3 177 -2 0 155 c0
85 3 155 8 155 4 0 20 -32 36 -70 17 -39 31 -70 33 -70 1 0 23 10 48 22 24 12
47 20 49 17 6 -5 14 -94 15 -161 l1 -48 159 0 158 0 7 198 c4 108 14 314 21
457 8 143 15 272 15 288 l0 27 -200 0 -200 0 0 -52 c1 -29 7 -161 14 -293 8
-132 12 -243 9 -247 -2 -5 -40 -8 -84 -8 l-79 0 0 36 c0 46 18 409 25 497 l5
67 -221 0 -222 0 6 -82z"/>
<path d="M6636 3216 c-3 -12 -8 -41 -12 -62 -11 -73 -64 -339 -85 -429 -12
-49 -41 -170 -65 -267 -24 -97 -44 -180 -44 -183 0 -3 40 -5 88 -5 l89 0 13
55 c7 30 17 55 22 55 4 0 20 -26 35 -57 15 -32 29 -60 30 -62 2 -2 22 9 46 26
40 29 100 63 111 63 3 0 11 -18 17 -40 l12 -40 169 0 c101 0 168 4 168 10 0 5
-25 112 -54 237 -51 212 -137 600 -152 686 l-6 37 -188 0 -188 0 -6 -24z m124
-526 c0 -6 9 -29 20 -53 16 -35 60 -153 60 -163 0 -4 -63 -16 -123 -24 l-58
-6 7 30 c12 56 76 226 85 226 5 0 9 -5 9 -10z"/>
<path d="M8180 3163 c0 -82 21 -336 40 -486 13 -108 51 -229 88 -282 36 -52
110 -100 192 -126 112 -35 344 -25 486 21 l31 10 6 343 c4 188 10 399 13 470
l7 127 -158 0 -158 0 6 -72 c3 -40 11 -221 18 -401 9 -244 10 -330 1 -339 -13
-13 -85 -12 -111 2 -10 5 -27 26 -37 47 -17 35 -19 69 -22 401 l-3 362 -200 0
-199 0 0 -77z"/>
<path d="M5270 1570 l-34 -5 -61 -210 c-34 -115 -66 -225 -73 -244 -7 -19 -9
-37 -6 -40 12 -12 230 -6 274 7 83 26 139 117 98 161 -11 11 -10 14 0 18 24 9
80 63 101 96 10 18 22 56 26 85 7 51 6 55 -25 87 -28 29 -41 34 -104 41 -85 9
-149 11 -196 4z m170 -196 c17 -20 2 -52 -31 -70 -51 -26 -60 -16 -38 42 16
42 23 51 39 47 11 -3 24 -11 30 -19z m-70 -154 c28 -15 7 -58 -34 -69 -17 -4
-32 -7 -34 -5 -2 1 2 20 9 43 12 42 26 49 59 31z"/>
<path d="M5900 1572 c-88 -5 -87 -4 -115 -100 -14 -48 -46 -156 -72 -240 -25
-84 -42 -156 -38 -160 4 -4 52 -6 108 -5 152 2 250 45 321 142 40 54 76 154
76 209 0 47 -32 98 -76 124 -34 20 -132 35 -204 30z m115 -232 c16 -18 17 -25
6 -62 -7 -23 -28 -57 -45 -74 -31 -31 -81 -53 -93 -41 -5 6 39 138 59 180 12
23 51 22 73 -3z"/>
<path d="M6760 1571 c-77 -23 -141 -84 -159 -148 -19 -67 -13 -87 41 -153 32
-39 34 -56 12 -88 -11 -16 -25 -22 -53 -22 -40 0 -51 -13 -51 -66 0 -28 45
-36 115 -22 66 14 134 79 136 129 1 19 1 37 0 41 0 4 -3 24 -7 46 -5 32 -2 44
15 61 12 12 34 21 49 21 27 0 29 4 56 96 15 53 25 99 22 101 -9 9 -150 11
-176 4z"/>
<path d="M4170 1439 c0 -69 -3 -181 -7 -247 l-6 -122 55 0 55 0 77 118 77 117
-6 -100 c-4 -55 -9 -108 -11 -117 -5 -16 2 -18 53 -18 56 0 60 2 77 33 11 17
80 124 155 237 75 113 137 208 139 212 2 4 -18 8 -45 10 l-48 3 -36 -65 c-56
-102 -99 -166 -99 -150 0 8 7 56 15 105 8 50 15 93 15 98 0 4 -42 7 -94 7
l-93 0 -7 -31 c-3 -17 -6 -48 -6 -68 0 -24 -10 -51 -31 -81 l-31 -45 7 113 6
112 -73 2 c-40 0 -88 1 -105 2 l-33 1 0 -126z"/>
<path d="M6987 1563 c-6 -9 -147 -480 -147 -489 0 -2 40 -4 88 -4 l88 0 19 53
c10 28 51 137 92 241 40 105 71 192 69 194 -10 9 -204 14 -209 5z"/>
<path d="M7394 1555 c-134 -43 -244 -178 -259 -317 -12 -103 56 -166 185 -176
99 -7 159 4 170 31 5 12 25 59 44 105 l35 83 -67 -3 -67 -3 -14 -62 c-13 -55
-17 -63 -38 -63 -33 0 -63 34 -63 71 0 77 92 149 189 149 l49 0 20 78 c34 128
40 117 -58 119 -48 1 -103 -4 -126 -12z"/>
<path d="M7686 1553 c-3 -10 -32 -115 -66 -233 -33 -118 -63 -223 -66 -232 -5
-16 2 -18 44 -18 l50 0 28 78 c15 42 30 81 34 85 4 5 47 -31 94 -78 48 -48 88
-85 90 -84 1 2 13 33 26 69 12 36 51 139 86 230 34 91 64 172 66 179 2 11 -10
16 -49 19 l-52 3 -17 -55 c-10 -31 -21 -56 -25 -56 -3 0 -24 25 -44 55 l-38
55 -78 0 c-65 0 -78 -3 -83 -17z"/>
<path d="M4796 1327 c-38 -127 -71 -238 -74 -244 -3 -10 29 -13 140 -13 l144
0 19 38 c11 20 21 40 23 44 2 3 -24 4 -57 1 -66 -6 -67 -5 -50 46 10 29 14 31
62 31 50 0 53 2 74 40 l21 40 -58 0 -59 0 14 33 c13 31 16 32 70 32 l56 0 38
93 39 92 -167 0 -166 0 -69 -233z"/>
<path d="M6275 1548 c-2 -7 -35 -118 -73 -245 l-69 -233 143 0 142 0 26 46 25
46 -58 -7 c-33 -3 -61 -3 -64 2 -2 4 2 23 9 41 13 30 17 32 64 32 48 0 50 1
70 40 l20 40 -56 0 c-50 0 -55 2 -49 18 4 9 9 24 12 33 3 12 16 14 61 11 l57
-4 34 84 c18 45 36 89 38 96 4 9 -32 12 -161 12 -125 0 -168 -3 -171 -12z"/>
</g>
</svg>
