<?xml version="1.0" encoding="UTF-8" standalone="no" ?>
<!DOCTYPE svg PUBLIC "-//W3C//DTD SVG 1.1//EN" "http://www.w3.org/Graphics/SVG/1.1/DTD/svg11.dtd">
<svg xmlns="http://www.w3.org/2000/svg" xmlns:xlink="http://www.w3.org/1999/xlink" version="1.1" width="1260" height="1080" viewBox="0 0 1260 1080" xml:space="preserve">
<desc>Created with Fabric.js 5.2.4</desc>
<defs>
</defs>
<g transform="matrix(0 0 0 0 0 0)" id="99b27eac-36ba-46ce-a2d6-239b344e4b74"  >
</g>
<g transform="matrix(1 0 0 1 630 540)" id="8c9f5523-dcf0-4b02-bc72-dbcec6fda229"  >
<rect style="stroke: none; stroke-width: 1; stroke-dasharray: none; stroke-linecap: butt; stroke-dashoffset: 0; stroke-linejoin: miter; stroke-miterlimit: 4; fill: rgb(255,255,255); fill-rule: nonzero; opacity: 1; visibility: hidden;" vector-effect="non-scaling-stroke"  x="-630" y="-540" rx="0" ry="0" width="1260" height="1080" />
</g>
<g transform="matrix(1 0 0 1 630 540)"  >
<g style="" vector-effect="non-scaling-stroke"   >
		<g transform="matrix(0.13 0 0 -0.13 -181.5 -57.02)"  >
<path style="stroke: none; stroke-width: 1; stroke-dasharray: none; stroke-linecap: butt; stroke-dashoffset: 0; stroke-linejoin: miter; stroke-miterlimit: 4; fill: rgb(255,255,255); fill-rule: nonzero; opacity: 1;" vector-effect="non-scaling-stroke"  transform=" translate(-4390, -3670.91)" d="M 3615 5481 C 3481 5424 3400 5381 3400 5367 C 3400 5356 3519 5100 3880 4335 C 4111 3846 4254 3540 4310 3420 C 4347 3340 4431 3160 4497 3020 C 4563 2880 4715 2554 4835 2297 C 4955 2039 5059 1826 5065 1823 C 5082 1817 5380 1961 5380 1975 C 5380 1987 5355 2043 5245 2275 C 5160 2456 4359 4172 4298 4305 C 4265 4377 4226 4460 4213 4490 C 4189 4542 4133 4662 3854 5262 C 3776 5431 3730 5519 3720 5519 C 3712 5519 3665 5502 3615 5481 z" stroke-linecap="round" />
</g>
		<g transform="matrix(0.13 0 0 -0.13 -321.3 -53.24)"  >
<path style="stroke: none; stroke-width: 1; stroke-dasharray: none; stroke-linecap: butt; stroke-dashoffset: 0; stroke-linejoin: miter; stroke-miterlimit: 4; fill: rgb(255,255,255); fill-rule: nonzero; opacity: 1;" vector-effect="non-scaling-stroke"  transform=" translate(-3340, -3660)" d="M 3290 4713 C 3266 4659 3229 4579 3209 4535 C 3188 4491 3048 4187 2897 3860 C 2746 3533 2574 3162 2516 3037 L 2410 2808 L 2410 2659 L 2410 2510 L 3340 2510 L 4270 2510 L 4270 2660 L 4270 2810 L 3510 2810 C 3010 2810 2750 2813 2750 2820 C 2750 2826 2937 3234 3166 3728 C 3395 4221 3589 4640 3596 4658 L 3611 4691 L 3486 4750 C 3417 4783 3355 4810 3348 4810 C 3340 4810 3315 4766 3290 4713 z" stroke-linecap="round" />
</g>
		<g transform="matrix(0.13 0 0 -0.13 261.54 69.58)"  >
<path style="stroke: none; stroke-width: 1; stroke-dasharray: none; stroke-linecap: butt; stroke-dashoffset: 0; stroke-linejoin: miter; stroke-miterlimit: 4; fill: rgb(255,255,255); fill-rule: nonzero; opacity: 1;" vector-effect="non-scaling-stroke"  transform=" translate(-7698.72, -2755.13)" d="M 7361 3250 C 7315 3245 7275 3239 7272 3236 C 7269 3232 7274 3085 7283 2907 C 7293 2730 7303 2514 7306 2428 L 7312 2271 L 7344 2266 C 7497 2243 7704 2255 7818 2294 C 8039 2370 8153 2572 8121 2829 C 8095 3032 7983 3164 7784 3225 C 7695 3252 7498 3264 7361 3250 z M 7772 2831 C 7835 2807 7870 2746 7870 2660 C 7870 2554 7816 2477 7725 2451 C 7703 2445 7682 2440 7678 2440 C 7668 2440 7668 2524 7677 2703 L 7683 2840 L 7716 2840 C 7734 2840 7759 2836 7772 2831 z" stroke-linecap="round" />
</g>
		<g transform="matrix(0.13 0 0 -0.13 24.67 69.65)"  >
<path style="stroke: none; stroke-width: 1; stroke-dasharray: none; stroke-linecap: butt; stroke-dashoffset: 0; stroke-linejoin: miter; stroke-miterlimit: 4; fill: rgb(255,255,255); fill-rule: nonzero; opacity: 1;" vector-effect="non-scaling-stroke"  transform=" translate(-5923.5, -2755)" d="M 5453 3158 C 5460 3068 5477 2719 5488 2445 L 5495 2275 L 5673 2272 L 5850 2270 L 5850 2425 C 5850 2510 5853 2580 5858 2580 C 5862 2580 5878 2548 5894 2510 C 5911 2471 5925 2440 5927 2440 C 5928 2440 5950 2450 5975 2462 C 5999 2474 6022 2482 6024 2479 C 6030 2474 6038 2385 6039 2318 L 6040 2270 L 6199 2270 L 6357 2270 L 6364 2468 C 6368 2576 6378 2782 6385 2925 C 6393 3068 6400 3197 6400 3213 L 6400 3240 L 6200 3240 L 6000 3240 L 6000 3188 C 6001 3159 6007 3027 6014 2895 C 6022 2763 6026 2652 6023 2648 C 6021 2643 5983 2640 5939 2640 L 5860 2640 L 5860 2676 C 5860 2722 5878 3085 5885 3173 L 5890 3240 L 5669 3240 L 5447 3240 L 5453 3158 z" stroke-linecap="round" />
</g>
		<g transform="matrix(0.13 0 0 -0.13 145.8 70.25)"  >
<path style="stroke: none; stroke-width: 1; stroke-dasharray: none; stroke-linecap: butt; stroke-dashoffset: 0; stroke-linejoin: miter; stroke-miterlimit: 4; fill: rgb(255,255,255); fill-rule: nonzero; opacity: 1;" vector-effect="non-scaling-stroke"  transform=" translate(-6830, -2750.38)" d="M 6636 3216 C 6633 3204 6628 3175 6624 3154 C 6613 3081 6560 2815 6539 2725 C 6527 2676 6498 2555 6474 2458 C 6450 2361 6430 2278 6430 2275 C 6430 2272 6470 2270 6518 2270 L 6607 2270 L 6620 2325 C 6627 2355 6637 2380 6642 2380 C 6646 2380 6662 2354 6677 2323 C 6692 2291 6706 2263 6707 2261 C 6709 2259 6729 2270 6753 2287 C 6793 2316 6853 2350 6864 2350 C 6867 2350 6875 2332 6881 2310 L 6893 2270 L 7062 2270 C 7163 2270 7230 2274 7230 2280 C 7230 2285 7205 2392 7176 2517 C 7125 2729 7039 3117 7024 3203 L 7018 3240 L 6830 3240 L 6642 3240 L 6636 3216 z M 6760 2690 C 6760 2684 6769 2661 6780 2637 C 6796 2602 6840 2484 6840 2474 C 6840 2470 6777 2458 6717 2450 L 6659 2444 L 6666 2474 C 6678 2530 6742 2700 6751 2700 C 6756 2700 6760 2695 6760 2690 z" stroke-linecap="round" />
</g>
		<g transform="matrix(0.13 0 0 -0.13 383.23 71.08)"  >
<path style="stroke: none; stroke-width: 1; stroke-dasharray: none; stroke-linecap: butt; stroke-dashoffset: 0; stroke-linejoin: miter; stroke-miterlimit: 4; fill: rgb(255,255,255); fill-rule: nonzero; opacity: 1;" vector-effect="non-scaling-stroke"  transform=" translate(-8611.5, -2744.01)" d="M 8180 3163 C 8180 3081 8201 2827 8220 2677 C 8233 2569 8271 2448 8308 2395 C 8344 2343 8418 2295 8500 2269 C 8612 2234 8844 2244 8986 2290 L 9017 2300 L 9023 2643 C 9027 2831 9033 3042 9036 3113 L 9043 3240 L 8885 3240 L 8727 3240 L 8733 3168 C 8736 3128 8744 2947 8751 2767 C 8760 2523 8761 2437 8752 2428 C 8739 2415 8667 2416 8641 2430 C 8631 2435 8614 2456 8604 2477 C 8587 2512 8585 2546 8582 2878 L 8579 3240 L 8379 3240 L 8180 3240 L 8180 3163 z" stroke-linecap="round" />
</g>
		<g transform="matrix(0.13 0 0 -0.13 -51.5 261.83)"  >
<path style="stroke: none; stroke-width: 1; stroke-dasharray: none; stroke-linecap: butt; stroke-dashoffset: 0; stroke-linejoin: miter; stroke-miterlimit: 4; fill: rgb(255,255,255); fill-rule: nonzero; opacity: 1;" vector-effect="non-scaling-stroke"  transform=" translate(-5346.6, -1319.36)" d="M 5270 1570 L 5236 1565 L 5175 1355 C 5141 1240 5109 1130 5102 1111 C 5095 1092 5093 1074 5096 1071 C 5108 1059 5326 1065 5370 1078 C 5453 1104 5509 1195 5468 1239 C 5457 1250 5458 1253 5468 1257 C 5492 1266 5548 1320 5569 1353 C 5579 1371 5591 1409 5595 1438 C 5602 1489 5601 1493 5570 1525 C 5542 1554 5529 1559 5466 1566 C 5381 1575 5317 1577 5270 1570 z M 5440 1374 C 5457 1354 5442 1322 5409 1304 C 5358 1278 5349 1288 5371 1346 C 5387 1388 5394 1397 5410 1393 C 5421 1390 5434 1382 5440 1374 z M 5370 1220 C 5398 1205 5377 1162 5336 1151 C 5319 1147 5304 1144 5302 1146 C 5300 1147 5304 1166 5311 1189 C 5323 1231 5337 1238 5370 1220 z" stroke-linecap="round" />
</g>
		<g transform="matrix(0.13 0 0 -0.13 25.92 261.77)"  >
<path style="stroke: none; stroke-width: 1; stroke-dasharray: none; stroke-linecap: butt; stroke-dashoffset: 0; stroke-linejoin: miter; stroke-miterlimit: 4; fill: rgb(255,255,255); fill-rule: nonzero; opacity: 1;" vector-effect="non-scaling-stroke"  transform=" translate(-5927.21, -1319.86)" d="M 5900 1572 C 5812 1567 5813 1568 5785 1472 C 5771 1424 5739 1316 5713 1232 C 5688 1148 5671 1076 5675 1072 C 5679 1068 5727 1066 5783 1067 C 5935 1069 6033 1112 6104 1209 C 6144 1263 6180 1363 6180 1418 C 6180 1465 6148 1516 6104 1542 C 6070 1562 5972 1577 5900 1572 z M 6015 1340 C 6031 1322 6032 1315 6021 1278 C 6014 1255 5993 1221 5976 1204 C 5945 1173 5895 1151 5883 1163 C 5878 1169 5922 1301 5942 1343 C 5954 1366 5993 1365 6015 1340 z" stroke-linecap="round" />
</g>
		<g transform="matrix(0.13 0 0 -0.13 134.92 261.72)"  >
<path style="stroke: none; stroke-width: 1; stroke-dasharray: none; stroke-linecap: butt; stroke-dashoffset: 0; stroke-linejoin: miter; stroke-miterlimit: 4; fill: rgb(255,255,255); fill-rule: nonzero; opacity: 1;" vector-effect="non-scaling-stroke"  transform=" translate(-6743.27, -1320.23)" d="M 6760 1571 C 6683 1548 6619 1487 6601 1423 C 6582 1356 6588 1336 6642 1270 C 6674 1231 6676 1214 6654 1182 C 6643 1166 6629 1160 6601 1160 C 6561 1160 6550 1147 6550 1094 C 6550 1066 6595 1058 6665 1072 C 6731 1086 6799 1151 6801 1201 C 6802 1220 6802 1238 6801 1242 C 6801 1246 6798 1266 6794 1288 C 6789 1320 6792 1332 6809 1349 C 6821 1361 6843 1370 6858 1370 C 6885 1370 6887 1374 6914 1466 C 6929 1519 6939 1565 6936 1567 C 6927 1576 6786 1578 6760 1571 z" stroke-linecap="round" />
</g>
		<g transform="matrix(0.13 0 0 -0.13 -165.65 262.11)"  >
<path style="stroke: none; stroke-width: 1; stroke-dasharray: none; stroke-linecap: butt; stroke-dashoffset: 0; stroke-linejoin: miter; stroke-miterlimit: 4; fill: rgb(255,255,255); fill-rule: nonzero; opacity: 1;" vector-effect="non-scaling-stroke"  transform=" translate(-4492.57, -1317.5)" d="M 4170 1439 C 4170 1370 4167 1258 4163 1192 L 4157 1070 L 4212 1070 L 4267 1070 L 4344 1188 L 4421 1305 L 4415 1205 C 4411 1150 4406 1097 4404 1088 C 4399 1072 4406 1070 4457 1070 C 4513 1070 4517 1072 4534 1103 C 4545 1120 4614 1227 4689 1340 C 4764 1453 4826 1548 4828 1552 C 4830 1556 4810 1560 4783 1562 L 4735 1565 L 4699 1500 C 4643 1398 4600 1334 4600 1350 C 4600 1358 4607 1406 4615 1455 C 4623 1505 4630 1548 4630 1553 C 4630 1557 4588 1560 4536 1560 L 4443 1560 L 4436 1529 C 4433 1512 4430 1481 4430 1461 C 4430 1437 4420 1410 4399 1380 L 4368 1335 L 4375 1448 L 4381 1560 L 4308 1562 C 4268 1562 4220 1563 4203 1564 L 4170 1565 L 4170 1439 z" stroke-linecap="round" />
</g>
		<g transform="matrix(0.13 0 0 -0.13 171.62 261.91)"  >
<path style="stroke: none; stroke-width: 1; stroke-dasharray: none; stroke-linecap: butt; stroke-dashoffset: 0; stroke-linejoin: miter; stroke-miterlimit: 4; fill: rgb(255,255,255); fill-rule: nonzero; opacity: 1;" vector-effect="non-scaling-stroke"  transform=" translate(-7018.05, -1318.87)" d="M 6987 1563 C 6981 1554 6840 1083 6840 1074 C 6840 1072 6880 1070 6928 1070 L 7016 1070 L 7035 1123 C 7045 1151 7086 1260 7127 1364 C 7167 1469 7198 1556 7196 1558 C 7186 1567 6992 1572 6987 1563 z" stroke-linecap="round" />
</g>
		<g transform="matrix(0.13 0 0 -0.13 217.97 262.62)"  >
<path style="stroke: none; stroke-width: 1; stroke-dasharray: none; stroke-linecap: butt; stroke-dashoffset: 0; stroke-linejoin: miter; stroke-miterlimit: 4; fill: rgb(255,255,255); fill-rule: nonzero; opacity: 1;" vector-effect="non-scaling-stroke"  transform=" translate(-7367.07, -1313.54)" d="M 7394 1555 C 7260 1512 7150 1377 7135 1238 C 7123 1135 7191 1072 7320 1062 C 7419 1055 7479 1066 7490 1093 C 7495 1105 7515 1152 7534 1198 L 7569 1281 L 7502 1278 L 7435 1275 L 7421 1213 C 7408 1158 7404 1150 7383 1150 C 7350 1150 7320 1184 7320 1221 C 7320 1298 7412 1370 7509 1370 L 7558 1370 L 7578 1448 C 7612 1576 7618 1565 7520 1567 C 7472 1568 7417 1563 7394 1555 z" stroke-linecap="round" />
</g>
		<g transform="matrix(0.13 0 0 -0.13 277.25 261.69)"  >
<path style="stroke: none; stroke-width: 1; stroke-dasharray: none; stroke-linecap: butt; stroke-dashoffset: 0; stroke-linejoin: miter; stroke-miterlimit: 4; fill: rgb(255,255,255); fill-rule: nonzero; opacity: 1;" vector-effect="non-scaling-stroke"  transform=" translate(-7812.41, -1320.5)" d="M 7686 1553 C 7683 1543 7654 1438 7620 1320 C 7587 1202 7557 1097 7554 1088 C 7549 1072 7556 1070 7598 1070 L 7648 1070 L 7676 1148 C 7691 1190 7706 1229 7710 1233 C 7714 1238 7757 1202 7804 1155 C 7852 1107 7892 1070 7894 1071 C 7895 1073 7907 1104 7920 1140 C 7932 1176 7971 1279 8006 1370 C 8040 1461 8070 1542 8072 1549 C 8074 1560 8062 1565 8023 1568 L 7971 1571 L 7954 1516 C 7944 1485 7933 1460 7929 1460 C 7926 1460 7905 1485 7885 1515 L 7847 1570 L 7769 1570 C 7704 1570 7691 1567 7686 1553 z" stroke-linecap="round" />
</g>
		<g transform="matrix(0.13 0 0 -0.13 -103.01 262.45)"  >
<path style="stroke: none; stroke-width: 1; stroke-dasharray: none; stroke-linecap: butt; stroke-dashoffset: 0; stroke-linejoin: miter; stroke-miterlimit: 4; fill: rgb(255,255,255); fill-rule: nonzero; opacity: 1;" vector-effect="non-scaling-stroke"  transform=" translate(-4959.91, -1315)" d="M 4796 1327 C 4758 1200 4725 1089 4722 1083 C 4719 1073 4751 1070 4862 1070 L 5006 1070 L 5025 1108 C 5036 1128 5046 1148 5048 1152 C 5050 1155 5024 1156 4991 1153 C 4925 1147 4924 1148 4941 1199 C 4951 1228 4955 1230 5003 1230 C 5053 1230 5056 1232 5077 1270 L 5098 1310 L 5040 1310 L 4981 1310 L 4995 1343 C 5008 1374 5011 1375 5065 1375 L 5121 1375 L 5159 1468 L 5198 1560 L 5031 1560 L 4865 1560 L 4796 1327 z" stroke-linecap="round" />
</g>
		<g transform="matrix(0.13 0 0 -0.13 85.03 262.45)"  >
<path style="stroke: none; stroke-width: 1; stroke-dasharray: none; stroke-linecap: butt; stroke-dashoffset: 0; stroke-linejoin: miter; stroke-miterlimit: 4; fill: rgb(255,255,255); fill-rule: nonzero; opacity: 1;" vector-effect="non-scaling-stroke"  transform=" translate(-6370.15, -1315)" d="M 6275 1548 C 6273 1541 6240 1430 6202 1303 L 6133 1070 L 6276 1070 L 6418 1070 L 6444 1116 L 6469 1162 L 6411 1155 C 6378 1152 6350 1152 6347 1157 C 6345 1161 6349 1180 6356 1198 C 6369 1228 6373 1230 6420 1230 C 6468 1230 6470 1231 6490 1270 L 6510 1310 L 6454 1310 C 6404 1310 6399 1312 6405 1328 C 6409 1337 6414 1352 6417 1361 C 6420 1373 6433 1375 6478 1372 L 6535 1368 L 6569 1452 C 6587 1497 6605 1541 6607 1548 C 6611 1557 6575 1560 6446 1560 C 6321 1560 6278 1557 6275 1548 z" stroke-linecap="round" />
</g>
</g>
</g>
</svg>